<svg width="165" height="42" viewBox="0 0 165 42" fill="none" xmlns="http://www.w3.org/2000/svg">
<path d="M2.31932 0.270417C2.68801 0.412161 3.05404 0.542824 3.44457 0.657327C3.79803 0.762134 4.14619 0.873406 4.49038 0.994834C5.29791 1.28109 6.1253 1.54888 6.94606 1.81205C7.7205 2.06138 8.48831 2.31531 9.25612 2.57387C9.88361 2.78533 10.5137 2.98987 11.1492 3.19256C11.6052 3.33984 12.056 3.49174 12.5061 3.65103C12.7867 3.74707 13.074 3.83248 13.36 3.91836C13.6677 4.01116 13.9676 4.11135 14.2668 4.21755C14.7692 4.39438 15.2729 4.5629 15.7825 4.73004C16.0288 4.81038 16.275 4.89071 16.5239 4.97151C16.5723 4.98739 16.6205 5.00323 16.6708 5.01953C17.0706 5.15065 17.4717 5.28316 17.8689 5.41706C18.3216 5.56896 18.7757 5.71763 19.2324 5.86445C19.6421 5.99604 20.0532 6.12901 20.4569 6.2629C20.5109 6.28054 20.5648 6.29818 20.6204 6.31646C20.9832 6.43512 21.3419 6.5547 21.706 6.67567C21.8258 6.71565 21.9462 6.75555 22.0667 6.79479C23.695 7.33037 23.695 7.33037 23.9929 7.8244C24.0743 8.01831 24.0588 8.21592 24.0547 8.41538C24.0545 8.46386 24.0543 8.5128 24.0541 8.56266C24.0533 8.72288 24.0511 8.88309 24.049 9.04284C24.0483 9.15503 24.0477 9.26677 24.0472 9.37896C24.0457 9.67353 24.0431 9.96995 24.0402 10.2654C24.0355 10.7364 24.0318 11.2073 24.0294 11.6783C24.0283 11.8422 24.0264 12.0056 24.0244 12.1677C24.0192 12.7633 24.0324 13.3219 24.2765 13.8991C24.3076 13.9729 24.3076 13.9729 24.3394 14.0477C24.3615 14.0981 24.3836 14.1484 24.4063 14.2006C24.4293 14.2541 24.4524 14.3077 24.4764 14.3631C24.6657 14.7952 24.8802 15.2219 25.1092 15.642C25.2297 15.8673 25.3277 16.0963 25.4243 16.3253C25.7334 17.041 26.0538 17.7474 26.4105 18.4538C26.527 18.6842 26.6389 18.9146 26.7402 19.1464C26.8679 19.4377 27.0003 19.7281 27.134 20.019C27.1693 20.0956 27.1693 20.0956 27.2055 20.1741C27.2816 20.3399 27.3584 20.5052 27.4345 20.6728C27.4606 20.7296 27.4869 20.7863 27.5139 20.845C27.7893 21.4406 28.0653 22.0408 28.3413 22.6364C28.3623 22.6813 28.3834 22.726 28.405 22.7726C28.5023 22.9799 28.5996 23.1872 28.6969 23.3959C28.865 23.7537 29.0292 24.1116 29.1821 24.4717C29.1957 24.5038 29.2094 24.5359 29.2234 24.5691C29.4313 25.0631 29.5544 25.6079 29.2268 26.0927C28.6337 26.7991 27.6382 27.1962 26.685 27.6395C26.3561 27.7923 26.0304 27.9483 25.7054 28.1058C25.1587 28.3657 24.6133 28.6229 24.0573 28.8814C23.4357 29.1695 22.8195 29.4586 22.1973 29.7541C21.4494 30.1091 20.6948 30.4605 19.9402 30.8114C19.6926 30.9259 19.4451 31.0413 19.1989 31.1563C19.2324 31.5409 19.3518 31.9042 19.4841 32.2782C19.5061 32.341 19.5279 32.4033 19.5497 32.4661C19.6068 32.63 19.6642 32.7935 19.7224 32.9555C19.7809 33.1213 19.8389 33.2875 19.8972 33.4542C19.9826 33.6975 20.0679 33.939 20.1533 34.1837C20.1715 34.2354 20.1898 34.2871 20.2086 34.3407C20.251 34.4602 20.294 34.5794 20.3377 34.6985C20.4217 34.9395 20.4403 35.1787 20.251 35.3957C19.6811 35.8301 18.8014 36.1298 18.0733 36.4114C17.8026 36.5171 17.5332 36.6252 17.2658 36.7328C17.2062 36.7565 17.1466 36.7803 17.0851 36.8048C16.1451 37.1802 15.2052 37.562 14.2719 37.9406C13.8483 38.1133 13.4247 38.2836 12.9945 38.4531C12.7496 38.551 12.506 38.6511 12.2597 38.7513C11.762 38.9563 11.2603 39.1586 10.7638 39.3608C10.6923 39.3897 10.6209 39.4185 10.5467 39.4485C10.1536 39.6069 9.75905 39.7606 9.36191 39.9102C9.16069 39.9873 8.9641 40.0695 8.76818 40.1531C8.08641 40.4421 7.39141 40.7164 6.6964 40.9934C6.41509 41.107 6.1351 41.2224 5.85578 41.3383C5.50364 41.4745 5.16078 41.4805 4.76363 41.4477C4.46776 41.3715 4.24469 41.2501 4.06201 41.0696C3.89454 40.8152 3.97397 40.5525 4.09947 40.2939C4.18883 40.1415 4.28348 39.9915 4.38078 39.8414C4.41672 39.7846 4.45293 39.7278 4.48867 39.6711C4.56347 39.5524 4.63893 39.4337 4.71438 39.3155C4.87721 39.0602 5.03475 38.8031 5.19294 38.5491C5.51794 38.0228 5.8489 37.501 6.17919 36.9747C6.21023 36.9258 6.21023 36.9258 6.24194 36.8754C6.26265 36.8427 6.28337 36.8099 6.30469 36.7762C6.90371 35.8297 7.50274 34.8832 8.0786 33.932C8.26658 33.6209 8.45721 33.3087 8.65049 32.9994C8.91922 32.57 9.18465 32.1406 9.4514 31.7112C9.47172 31.6781 9.49204 31.6452 9.51302 31.611C9.75859 31.2112 10.0042 30.8123 10.2477 30.4106C10.398 30.165 10.5489 29.9212 10.6998 29.6719C10.7297 29.6229 10.7597 29.5745 10.7905 29.5241C11.1651 28.9147 11.5451 28.3052 11.9356 27.7004C12.0766 27.482 12.2083 27.2636 12.3288 27.0402C12.4625 26.7941 12.6094 26.5554 12.7643 26.3153C12.7871 26.28 12.8099 26.2446 12.8332 26.2082C12.9271 26.0623 13.0218 25.9168 13.1171 25.7709C13.2521 25.5632 13.3852 25.3549 13.5136 25.143C13.5579 25.0705 13.6036 24.9985 13.65 24.9269C13.8412 24.5797 13.702 24.2621 13.5745 23.9112C13.5524 23.8475 13.5303 23.7837 13.5083 23.7196C13.0695 22.4683 12.3169 21.448 11.3703 20.3537C11.2135 20.1709 11.0586 19.9876 10.9037 19.8043C10.6998 19.5619 10.4953 19.3195 10.2901 19.0794C9.90818 18.6293 9.52891 18.1791 9.15162 17.7266C9.10277 17.6684 9.05366 17.6103 9.00534 17.5521C8.83655 17.3517 8.66843 17.1509 8.5003 16.9519C8.00718 16.3655 7.50744 15.7791 7.00439 15.1974C6.64034 14.7758 6.28291 14.3525 5.92548 13.9277C5.58791 13.5251 5.25033 13.1243 4.89952 12.7226C4.61159 12.3893 4.32829 12.0532 4.04566 11.7161C3.93644 11.5859 3.82657 11.4562 3.71735 11.326C3.66235 11.2609 3.60748 11.1958 3.55254 11.1302C3.41023 10.9612 3.26725 10.7927 3.12428 10.6223C3.08 10.5702 3.08 10.5702 3.03492 10.5171C2.97906 10.4515 2.92306 10.3855 2.8668 10.3199C2.27439 9.62274 2.27439 9.62274 2.37699 9.26261C2.56232 8.95188 2.84959 8.80183 3.27056 8.64854C3.4837 8.60764 3.61542 8.63206 3.83319 8.66295C3.95167 8.67029 4.07015 8.67698 4.18929 8.68317C4.45008 8.69882 4.69036 8.72777 4.94387 8.77643C5.20731 8.82076 5.47604 8.84477 5.74478 8.87201C6.03999 8.90243 6.33255 8.9348 6.62512 8.98282C6.86274 9.02068 7.0997 9.0493 7.33998 9.07516C7.65505 9.11039 7.94959 9.16427 8.25341 9.23214C8.45728 9.27379 8.65585 9.29308 8.867 9.30878C8.83424 9.27258 8.80147 9.23629 8.76771 9.1989C8.66843 9.07793 8.66843 9.07793 8.66843 8.98559H8.53605C8.42551 8.88724 8.32291 8.78844 8.22164 8.68548C8.1616 8.62546 8.10183 8.5659 8.0416 8.50587C8.01267 8.47693 7.98375 8.44816 7.95423 8.41815C7.70072 8.16652 7.42801 7.92413 7.15994 7.68404C6.94018 7.48597 6.72308 7.28697 6.50531 7.08844C6.22996 6.83727 5.95195 6.58979 5.67131 6.34047C5.38205 6.08192 5.09875 5.82336 4.82406 5.55557C4.65726 5.39582 4.48318 5.24022 4.30976 5.08463C4.06154 4.86024 3.82127 4.6317 3.58166 4.4013C3.26394 4.09889 2.93762 3.80109 2.59542 3.51021C2.34191 3.29136 2.10627 3.06513 1.87394 2.83612C1.72898 2.69207 1.57873 2.5554 1.40994 2.42428C1.2524 2.29454 1.2524 2.29454 1.2524 2.15603H1.12002C1.02405 2.08308 1.02405 2.08308 0.913507 1.98012C0.8728 1.94244 0.832093 1.90486 0.790392 1.86607C0.746442 1.82471 0.702359 1.78343 0.657349 1.74095C0.610022 1.69723 0.562696 1.65369 0.513715 1.60844C-0.00985484 1.11903 -0.00985492 1.11903 0.00338325 0.818924C0.0861218 0.4768 0.399205 0.301813 0.777816 0.0986621C1.29013 -0.129421 1.84349 0.0843031 2.32006 0.272725L2.31932 0.270417Z" fill="white"/>
<path d="M32.4957 18.5447C32.5512 18.5436 32.6069 18.5424 32.6638 18.5411C32.8141 18.5563 32.8141 18.5563 32.9332 18.609C33.0477 18.7332 33.0246 18.826 33.0127 18.9719C32.9632 19.0956 32.9632 19.0956 32.8942 19.2203C32.869 19.2664 32.8437 19.3126 32.8181 19.3597C32.791 19.4078 32.7638 19.4562 32.736 19.5056C32.6951 19.58 32.6951 19.58 32.6532 19.6557C32.5751 19.7974 32.4964 19.9387 32.4176 20.08C32.354 20.1945 32.2905 20.309 32.227 20.4235C32.2039 20.4644 32.1809 20.5052 32.1575 20.5473C32.1015 20.6521 32.0502 20.7569 32.0006 20.8631C31.8596 21.1613 31.6968 21.454 31.5366 21.7495C31.5205 21.7791 31.5043 21.8086 31.4877 21.8391C30.8125 23.0765 30.8125 23.0765 30.6338 23.2658C30.4518 23.2658 30.4518 23.2658 30.2367 23.2196C29.9799 22.9117 29.8117 22.5732 29.633 22.2408C29.6095 22.1974 29.6095 22.1974 29.5856 22.1531C29.3148 21.6544 29.0607 21.1512 28.8177 20.6433C28.6404 20.2799 28.4563 19.9184 28.2531 19.5629C28.1499 19.375 28.0883 19.2194 28.1221 19.0181C28.4153 18.8135 28.9759 18.8251 29.3797 18.7969C29.4909 18.7887 29.6014 18.7767 29.712 18.7639C29.9754 18.7333 30.2402 18.7145 30.5063 18.6947C30.6042 18.687 30.7022 18.6793 30.8002 18.6716C31.0153 18.6548 31.2304 18.6398 31.4455 18.6254C31.6209 18.6135 31.7891 18.599 31.9625 18.5765C32.1452 18.5579 32.3199 18.5486 32.5046 18.5447L32.4957 18.5447Z" fill="white"/>
<path d="M34.0842 19.1449C34.345 19.1897 34.441 19.3172 34.58 19.4663C34.609 19.496 34.6381 19.5259 34.668 19.5563C34.8653 19.7595 35.0559 19.9663 35.2412 20.175C35.363 20.308 35.4888 20.4377 35.6172 20.5679C35.6594 20.6111 35.7019 20.6543 35.7449 20.6986C35.8303 20.7858 35.9164 20.8726 36.0031 20.959C36.0425 20.9994 36.0819 21.0398 36.1229 21.0813C36.1588 21.1175 36.1944 21.1538 36.2314 21.1908C36.3208 21.314 36.3294 21.3925 36.3089 21.5287C36.0733 21.6931 35.1108 21.6252 34.7799 21.6266C34.3437 21.624 33.9062 21.6149 33.4693 21.6035C33.4048 21.6021 33.3402 21.6007 33.274 21.5992C33.2139 21.5974 33.1536 21.5956 33.0914 21.5938C33.0373 21.5923 32.9835 21.5909 32.9279 21.5894C32.7948 21.5746 32.7948 21.5746 32.6624 21.4823C32.6892 21.2579 32.7915 21.0483 32.8941 20.8359C32.9111 20.8006 32.9281 20.7652 32.9455 20.7288C33.0951 20.424 33.2626 20.1239 33.436 19.8238C33.4612 19.7802 33.4864 19.7366 33.5121 19.6918C33.5364 19.6508 33.5606 19.6096 33.5856 19.5676C33.607 19.5313 33.6284 19.4951 33.6504 19.4577C33.8404 19.1871 33.8404 19.1871 34.0773 19.1423L34.0842 19.1449Z" fill="white"/>
<path d="M70.4193 28.0078V31.582C68.3724 32.668 66.2279 33.2109 63.9857 33.2109C61.0794 33.2109 58.763 32.4102 57.0365 30.8086C55.3177 29.1992 54.4583 27.2188 54.4583 24.8672C54.4583 22.5156 55.3646 20.5195 57.1771 18.8789C58.9974 17.2383 61.3724 16.418 64.3021 16.418C66.638 16.418 68.6146 16.8984 70.2318 17.8594V21.5039C68.2474 20.3867 66.3685 19.8281 64.5951 19.8281C62.8529 19.8281 61.4271 20.2969 60.3177 21.2344C59.2162 22.1641 58.6654 23.3516 58.6654 24.7969C58.6654 26.25 59.2083 27.4492 60.2943 28.3945C61.388 29.3398 62.7865 29.8125 64.4896 29.8125C65.3333 29.8125 66.1458 29.7031 66.9271 29.4844C67.7083 29.2578 68.8724 28.7656 70.4193 28.0078ZM85.7943 30V33H73.724V16.6289H85.6302V19.6289H77.8021V23.0625H85.2669V26.0625H77.8021V30H85.7943ZM100.021 17.6836V20.8828C97.849 19.9062 96.1185 19.418 94.8294 19.418C94.0951 19.418 93.5091 19.543 93.0716 19.793C92.6419 20.0352 92.4271 20.3594 92.4271 20.7656C92.4271 21.0781 92.5833 21.375 92.8958 21.6562C93.2083 21.9375 93.9701 22.3008 95.181 22.7461C96.3919 23.1914 97.3607 23.6055 98.0872 23.9883C98.8138 24.3711 99.4388 24.9102 99.9622 25.6055C100.493 26.3008 100.759 27.1797 100.759 28.2422C100.759 29.7578 100.181 30.9648 99.0247 31.8633C97.8763 32.7617 96.3607 33.2109 94.4779 33.2109C92.4466 33.2109 90.4779 32.6836 88.5716 31.6289V28.1016C89.6654 28.8359 90.6341 29.3711 91.4779 29.707C92.3216 30.043 93.2162 30.2109 94.1615 30.2109C95.763 30.2109 96.5638 29.707 96.5638 28.6992C96.5638 28.3555 96.4037 28.0312 96.0833 27.7266C95.763 27.4219 94.9896 27.0508 93.763 26.6133C92.5443 26.1758 91.5755 25.7695 90.8568 25.3945C90.1458 25.0195 89.5287 24.4844 89.0052 23.7891C88.4896 23.0938 88.2318 22.2031 88.2318 21.1172C88.2318 19.7109 88.7982 18.5781 89.931 17.7188C91.0638 16.8516 92.5794 16.418 94.4779 16.418C96.2279 16.418 98.0755 16.8398 100.021 17.6836ZM107.638 16.6289V33H103.56V16.6289H107.638ZM127.033 17.7656V21.3398C124.947 20.332 122.908 19.8281 120.915 19.8281C118.993 19.8281 117.513 20.3125 116.474 21.2812C115.435 22.25 114.915 23.4844 114.915 24.9844C114.915 26.4219 115.435 27.5859 116.474 28.4766C117.513 29.3672 118.88 29.8125 120.576 29.8125C121.474 29.8125 122.376 29.6172 123.283 29.2266V27.3164H120.915V24.3164H127.372V31.0078C126.724 31.6562 125.736 32.1875 124.408 32.6016C123.087 33.0078 121.779 33.2109 120.482 33.2109C117.63 33.2109 115.286 32.4258 113.451 30.8555C111.622 29.2773 110.708 27.2734 110.708 24.8438C110.708 22.3594 111.622 20.3359 113.451 18.7734C115.286 17.2031 117.661 16.418 120.576 16.418C122.982 16.418 125.134 16.8672 127.033 17.7656ZM143.076 16.6289H147.154V25.9219C147.154 28.3125 146.447 30.125 145.033 31.3594C143.618 32.5938 141.599 33.2109 138.974 33.2109C136.38 33.2109 134.365 32.5859 132.927 31.3359C131.497 30.0859 130.783 28.2891 130.783 25.9453V16.6289H134.872V26.0391C134.872 27.1797 135.243 28.0938 135.986 28.7812C136.736 29.4688 137.716 29.8125 138.927 29.8125C140.185 29.8125 141.189 29.4609 141.939 28.7578C142.697 28.0547 143.076 27.0547 143.076 25.7578V16.6289ZM162.81 30V33H150.74V16.6289H162.646V19.6289H154.818V23.0625H162.283V26.0625H154.818V30H162.81Z" fill="white"/>
</svg>
